<svg width="1040" height="1070" viewBox="0 0 1040 1070" fill="none" xmlns="http://www.w3.org/2000/svg">
<mask id="path-1-outside-1_40_164" maskUnits="userSpaceOnUse" x="334.402" y="34.5347" width="686.429" height="818.931" fill="black">
<rect fill="white" x="334.402" y="34.5347" width="686.429" height="818.931"/>
<path d="M370.535 202.005C453.017 164.983 546.304 159.891 632.327 187.714C718.349 215.537 790.983 274.296 836.162 352.608C881.34 430.921 895.845 523.214 876.869 611.61C857.893 700.006 806.785 778.214 733.446 831.084L520 535L370.535 202.005Z"/>
</mask>
<path d="M370.535 202.005C453.017 164.983 546.304 159.891 632.327 187.714C718.349 215.537 790.983 274.296 836.162 352.608C881.34 430.921 895.845 523.214 876.869 611.61C857.893 700.006 806.785 778.214 733.446 831.084L520 535L370.535 202.005Z" stroke="#EFC97E" stroke-width="4" mask="url(#path-1-outside-1_40_164)"/>
<mask id="path-2-outside-2_40_164" maskUnits="userSpaceOnUse" x="19.169" y="216.535" width="686.429" height="818.931" fill="black">
<rect fill="white" x="19.169" y="216.535" width="686.429" height="818.931"/>
<path d="M669.465 867.995C586.983 905.017 493.696 910.109 407.673 882.286C321.651 854.463 249.016 795.704 203.838 717.391C158.66 639.079 144.155 546.786 163.131 458.39C182.107 369.994 233.215 291.786 306.554 238.916L520 535L669.465 867.995Z"/>
</mask>
<path d="M669.465 867.995C586.983 905.017 493.696 910.109 407.673 882.286C321.651 854.463 249.016 795.704 203.838 717.391C158.66 639.079 144.155 546.786 163.131 458.39C182.107 369.994 233.215 291.786 306.554 238.916L520 535L669.465 867.995Z" stroke="#EFC97E" stroke-width="4" stroke-dasharray="15 15" mask="url(#path-2-outside-2_40_164)"/>
<circle cx="520" cy="535" r="365" transform="rotate(-30 520 535)" fill="#F1F1EA"/>
<path d="M320.84 193.215C319.64 190.26 319.04 188.782 319.249 188.375C319.429 188.025 319.796 187.813 320.189 187.832C320.647 187.855 321.626 189.113 323.585 191.63L338.088 210.262C338.329 210.571 338.449 210.726 338.603 210.821C338.74 210.904 338.894 210.954 339.053 210.966C339.234 210.98 339.422 210.925 339.798 210.815L359.185 205.164C361.024 204.628 361.944 204.359 362.311 204.567C362.628 204.746 362.822 205.083 362.819 205.446C362.815 205.868 362.123 206.531 360.739 207.856L346.152 221.819C345.868 222.09 345.727 222.226 345.648 222.389C345.579 222.533 345.545 222.691 345.549 222.851C345.554 223.032 345.628 223.214 345.776 223.577L354.66 245.453C355.86 248.408 356.46 249.885 356.25 250.293C356.071 250.643 355.704 250.855 355.311 250.835C354.853 250.813 353.874 249.554 351.915 247.037L337.412 228.406C337.171 228.096 337.051 227.942 336.896 227.847C336.76 227.763 336.606 227.713 336.447 227.701C336.266 227.688 336.078 227.743 335.702 227.853L316.315 233.504C314.476 234.04 313.556 234.308 313.189 234.1C312.872 233.921 312.678 233.585 312.681 233.221C312.685 232.799 313.377 232.137 314.761 230.812L329.348 216.848C329.632 216.577 329.773 216.442 329.852 216.279C329.921 216.135 329.955 215.976 329.951 215.816C329.946 215.636 329.872 215.454 329.724 215.091L320.84 193.215Z" fill="#EFC97E"/>
<path d="M685.34 824.547C684.14 821.592 683.54 820.115 683.749 819.707C683.929 819.357 684.296 819.145 684.689 819.165C685.147 819.187 686.126 820.446 688.085 822.963L702.588 841.594C702.829 841.904 702.949 842.058 703.103 842.153C703.24 842.237 703.394 842.287 703.553 842.299C703.734 842.312 703.922 842.257 704.298 842.148L723.685 836.496C725.524 835.96 726.444 835.692 726.811 835.9C727.128 836.079 727.322 836.415 727.319 836.779C727.315 837.201 726.623 837.863 725.239 839.188L710.652 853.152C710.368 853.423 710.227 853.558 710.148 853.721C710.079 853.865 710.045 854.024 710.049 854.184C710.054 854.364 710.128 854.546 710.276 854.91L719.16 876.785C720.36 879.74 720.96 881.218 720.75 881.625C720.571 881.975 720.204 882.187 719.811 882.168C719.353 882.145 718.374 880.887 716.415 878.37L701.912 859.738C701.671 859.429 701.551 859.274 701.396 859.179C701.26 859.096 701.106 859.046 700.947 859.034C700.766 859.02 700.578 859.075 700.202 859.185L680.815 864.836C678.976 865.372 678.056 865.641 677.689 865.433C677.372 865.254 677.178 864.917 677.181 864.554C677.185 864.132 677.877 863.469 679.261 862.144L693.848 848.181C694.132 847.91 694.273 847.774 694.352 847.611C694.421 847.467 694.455 847.309 694.451 847.149C694.446 846.968 694.372 846.786 694.224 846.423L685.34 824.547Z" fill="#EFC97E"/>
</svg>
